<svg viewBox="-192 0 512 512" width="24" height="24" xmlns="http://www.w3.org/2000/svg">
  <g transform="translate(0 140) scale(0.9)">
    <path fill='#FFFFFF' d="m64 320c-35.285156 0-64-28.714844-64-64s28.714844-64 64-64 64 28.714844 64 64-28.714844 64-64 64zm0-96c-17.644531 0-32 14.355469-32 32s14.355469 32 32 32 32-14.355469 32-32-14.355469-32-32-32zm0 0"/>
    <path fill='#FFFFFF' d="m64 128c-35.285156 0-64-28.714844-64-64s28.714844-64 64-64 64 28.714844 64 64-28.714844 64-64 64zm0-96c-17.644531 0-32 14.355469-32 32s14.355469 32 32 32 32-14.355469 32-32-14.355469-32-32-32zm0 0"/>
  </g>
</svg>
