<svg xmlns="http://www.w3.org/2000/svg" xmlns:xlink="http://www.w3.org/1999/xlink" width="24" height="24" viewBox="0 0 24 24"><defs><style>.a{fill:#fff;}.b{clip-path:url(#a);}</style><clipPath id="a"><rect class="a" width="24" height="24" transform="translate(0.064 0.064)"/></clipPath></defs><g class="b" transform="translate(-0.064 -0.064)"><g transform="translate(2.045 2.045)"><g transform="translate(0 0)"><path class="a" d="M10,0A10,10,0,1,0,20,10,10.011,10.011,0,0,0,10,0Zm0,18.181A8.181,8.181,0,1,1,18.182,10,8.191,8.191,0,0,1,10,18.181Z" transform="translate(0 -0.001)"/><path class="a" d="M11.819,9.455a.91.91,0,0,0-.91.91V16.43a.91.91,0,0,0,1.82,0V10.365A.91.91,0,0,0,11.819,9.455Z" transform="translate(-1.819 -1.581)"/><path class="a" d="M11.819,5.092a.909.909,0,1,0,.644.266A.918.918,0,0,0,11.819,5.092Z" transform="translate(-1.819 -0.849)"/></g></g></g></svg>