<svg xmlns="http://www.w3.org/2000/svg" xmlns:xlink="http://www.w3.org/1999/xlink" width="16" height="16" viewBox="0 0 16 16"><defs><style>.a{fill:#000;}.b{clip-path:url(#a);}</style><clipPath id="a"><rect class="a" width="16" height="16" transform="translate(208 176)"/></clipPath></defs><g class="b" transform="translate(-208 -176)"><g transform="translate(208 176)"><path class="a" d="M6.933,1.067H6.667a.267.267,0,0,0,0,.533h.267a.267.267,0,0,0,0-.533Z"/><path class="a" d="M8,1.6H9.333a.267.267,0,0,0,0-.533H8A.267.267,0,0,0,8,1.6Z"/><path class="a" d="M15.467,12.8h-.8v-.533a.533.533,0,0,0-.533-.533h-1.6V11.2h.8a.533.533,0,0,0,.533-.533V8.533A.533.533,0,0,0,13.333,8h-.8V7.467A.533.533,0,0,0,12,6.933H9.773A1.606,1.606,0,0,0,8.8,5.96V5.271a2.407,2.407,0,0,0,1.748-1.6c1.148-.315,1.4-1.883,1.45-2.569a.531.531,0,0,0-.139-.4.54.54,0,0,0-.4-.172h-.8A.533.533,0,0,0,10.133,0H5.867a.533.533,0,0,0-.533.533h-.8a.54.54,0,0,0-.4.172.53.53,0,0,0-.139.4c.053.686.3,2.254,1.45,2.569A2.407,2.407,0,0,0,7.2,5.271V5.96a1.606,1.606,0,0,0-.973.973H4a.533.533,0,0,0-.533.533V8h-.8a.533.533,0,0,0-.533.533v2.133a.533.533,0,0,0,.533.533h.8v.533h-1.6a.533.533,0,0,0-.533.533V12.8h-.8A.533.533,0,0,0,0,13.333v2.133A.533.533,0,0,0,.533,16H2.667a.533.533,0,0,0,.533-.533V13.333a.533.533,0,0,0-.533-.533h-.8v-.533H5.6V12.8H4.8a.533.533,0,0,0-.533.533v2.133A.533.533,0,0,0,4.8,16H6.933a.533.533,0,0,0,.533-.533V13.333a.533.533,0,0,0-.533-.533h-.8v-.533a.533.533,0,0,0-.533-.533H4V11.2h.8a.533.533,0,0,0,.533-.533V8.533A.533.533,0,0,0,4.8,8H4V7.467H6.133A.533.533,0,0,0,6.667,8H9.333a.533.533,0,0,0,.533-.533H12V8h-.8a.533.533,0,0,0-.533.533v2.133a.533.533,0,0,0,.533.533H12v.533H10.4a.533.533,0,0,0-.533.533V12.8h-.8a.533.533,0,0,0-.533.533v2.133A.533.533,0,0,0,9.067,16H11.2a.533.533,0,0,0,.533-.533V13.333A.533.533,0,0,0,11.2,12.8h-.8v-.533h3.733V12.8h-.8a.533.533,0,0,0-.533.533v2.133a.533.533,0,0,0,.533.533h2.133A.533.533,0,0,0,16,15.467V13.333A.533.533,0,0,0,15.467,12.8Zm-4-11.735a2.776,2.776,0,0,1-.806,1.98c0-.037.006-.074.006-.111V1.067Zm-8.8,14.4H.533V13.333H2.667Zm4.267,0H4.8V13.333H6.933ZM4.8,10.667H2.667V8.533H4.8Zm-.264-9.6h.8V2.933c0,.038,0,.074.006.111A2.763,2.763,0,0,1,4.536,1.067ZM5.867,2.933V.533h4.267v2.4A1.869,1.869,0,0,1,8.267,4.8H7.733A1.869,1.869,0,0,1,5.867,2.933Zm1.867,2.4h.533v.533H7.733ZM6.667,7.467A1.067,1.067,0,0,1,7.733,6.4h.533A1.068,1.068,0,0,1,9.333,7.467ZM11.2,8.533h2.133v2.133H11.2Zm0,6.933H9.067V13.333H11.2Zm4.267,0H13.333V13.333h2.133Z"/></g></g></svg>
