<svg xmlns="http://www.w3.org/2000/svg" xmlns:xlink="http://www.w3.org/1999/xlink"
     width="16" height="16" viewBox="0 0 16 16"><defs><style>.a{fill:#000; }.b{clip-path:url(#a);}</style>
  <clipPath id="a"><rect class="a" width="16" height="16" transform="translate(208 112)"/></clipPath></defs><g class="b"
   transform="translate(-208 -112)">
  <g transform="translate(208 112)"><path class="a" d="M15.917,9.313l-7.3-7.3h0L6.687.083a.282.282,0,0,0-.4,0L4.944,1.426a.282.282,0,0,0-.072.277A2.566,2.566,0,0,1,1.7,4.873a.282.282,0,0,0-.277.072L.083,6.287a.282.282,0,0,0,0,.4L2.016,8.619h0l7.3,7.3a.282.282,0,0,0,.4,0l1.343-1.343a.282.282,0,0,0,.072-.277,2.566,2.566,0,0,1,3.17-3.17.282.282,0,0,0,.277-.072l1.343-1.343A.282.282,0,0,0,15.917,9.313Zm-1.629,1.229a3.142,3.142,0,0,0-.694-.078,3.13,3.13,0,0,0-3.052,3.824l-1.03,1.03-6.9-6.9.266-.266a.282.282,0,1,0-.4-.4l-.266.266L.682,6.487l1.03-1.03a3.142,3.142,0,0,0,.694.078A3.13,3.13,0,0,0,5.457,1.711L6.487.682,8.021,2.215l-.266.266a.282.282,0,1,0,.4.4l.266-.266,6.9,6.9Z"/><path class="a" d="M13.031,8.8,8.375,4.142a.282.282,0,0,0-.4,0L4.142,7.975a.282.282,0,0,0,0,.4L8.8,13.031a.282.282,0,0,0,.4,0L13.031,9.2A.282.282,0,0,0,13.031,8.8ZM9,12.432,4.741,8.175,8.175,4.741,12.432,9Z"/><path class="a" d="M10.539,8.639l-.861-.609.013-1.054a.282.282,0,0,0-.451-.23L8.4,7.377l-1-.339a.282.282,0,0,0-.358.358l.339,1-.631.845a.282.282,0,0,0,.23.451l1.054-.013.609.861a.282.282,0,0,0,.5-.079l.313-1.007L10.46,9.14a.282.282,0,0,0,.079-.5Zm-1.4.318a.282.282,0,0,0-.186.186l-.187.6-.364-.515a.282.282,0,0,0-.231-.119h0l-.631.008.377-.506a.282.282,0,0,0,.041-.26l-.2-.6.6.2a.282.282,0,0,0,.26-.041l.506-.377-.008.631a.283.283,0,0,0,.119.234l.515.364Z"/><path class="a" d="M7.1,3.536a.282.282,0,0,0-.4,0L5.645,4.591a.282.282,0,1,0,.4.4L7.1,3.936A.282.282,0,0,0,7.1,3.536Z"/><path class="a" d="M4.99,5.645a.282.282,0,0,0-.4,0L3.536,6.7a.282.282,0,1,0,.4.4L4.99,6.045A.282.282,0,0,0,4.99,5.645Z"/></g></g></svg>
