<svg xmlns="http://www.w3.org/2000/svg" xmlns:xlink="http://www.w3.org/1999/xlink" width="16" height="16" viewBox="0 0 16 16"><defs><style>.a{fill:#000;}.b{clip-path:url(#a);}</style><clipPath id="a"><rect class="a" width="16" height="16" transform="translate(208 144)"/></clipPath></defs><g class="b" transform="translate(-208 -144)"><g transform="translate(208 144)"><path class="a" d="M13.657,2.343A8,8,0,0,0,2.343,13.657,8,8,0,0,0,13.657,2.343ZM14.865,4.9l-1.729.716a.234.234,0,0,0-.127.306h0a5.419,5.419,0,0,1,0,4.144l0,.005,0,0a5.477,5.477,0,0,1-2.933,2.93,5.418,5.418,0,0,1-4.149,0,5.477,5.477,0,0,1-2.935-2.935,5.419,5.419,0,0,1,0-4.144l0-.006,0-.005A5.478,5.478,0,0,1,5.926,2.991a5.418,5.418,0,0,1,4.149,0A5.493,5.493,0,0,1,12.6,5.128a.234.234,0,0,0,.4-.249,5.927,5.927,0,0,0-2.525-2.227L11.1,1.135A7.579,7.579,0,0,1,14.865,4.9ZM8,.469a7.5,7.5,0,0,1,2.664.487l-.628,1.517a5.891,5.891,0,0,0-4.072,0L5.336.955A7.5,7.5,0,0,1,8,.469Zm-3.1.667.628,1.517A5.924,5.924,0,0,0,2.652,5.531L1.135,4.9A7.578,7.578,0,0,1,4.9,1.135ZM.469,8A7.5,7.5,0,0,1,.955,5.336l1.517.628a5.891,5.891,0,0,0,0,4.072l-1.517.628A7.5,7.5,0,0,1,.469,8Zm.667,3.1,1.517-.628a5.927,5.927,0,0,0,2.879,2.879L4.9,14.865A7.578,7.578,0,0,1,1.135,11.1ZM8,15.531a7.5,7.5,0,0,1-2.664-.487l.628-1.517A5.84,5.84,0,0,0,8,13.891H8a5.839,5.839,0,0,0,2.035-.363l.628,1.517A7.5,7.5,0,0,1,8,15.531Zm3.1-.667-.628-1.517a5.927,5.927,0,0,0,2.879-2.879l1.517.628A7.578,7.578,0,0,1,11.1,14.865Zm2.43-4.829a5.89,5.89,0,0,0,0-4.072l1.517-.628a7.536,7.536,0,0,1,0,5.329Z"/><path class="a" d="M9.845,6.276,9.813,6.27a.237.237,0,0,0-.151.03h0a.234.234,0,0,0-.106.253h0a.234.234,0,0,0,.173.175,1.562,1.562,0,1,1-1.06,2.926h0A.3.3,0,0,0,8.3,10.1l.417.549a.109.109,0,0,1-.086.177c-1.378,0-1.292.013-1.338-.033a.109.109,0,0,1-.008-.145L7.7,10.1a.3.3,0,0,0-.364-.447A1.563,1.563,0,1,1,6.251,6.737a.236.236,0,0,0,.171-.224A1.567,1.567,0,0,1,7.984,4.966a1.551,1.551,0,0,1,1.343.764.234.234,0,0,0,.4-.24,2.031,2.031,0,0,0-3.768.848A2.032,2.032,0,0,0,4.7,8.729s0,0,0,0A2.032,2.032,0,0,0,7,10.247a.719.719,0,0,0-.212.472.578.578,0,0,0,.576.58H8.632a.578.578,0,0,0,.576-.58A.722.722,0,0,0,9,10.245a2.032,2.032,0,0,0,2.063-.94l0,0A2.034,2.034,0,0,0,9.845,6.276Z"/></g></g></svg>
